<?xml version="1.0" encoding="utf-8"?>
<!-- Generator: Adobe Illustrator 23.1.0, SVG Export Plug-In . SVG Version: 6.00 Build 0)  -->
<svg version="1.1" id="Layer_1" xmlns="http://www.w3.org/2000/svg" xmlns:xlink="http://www.w3.org/1999/xlink" x="0px" y="0px"
	 viewBox="0 0 795.9 153.8" style="enable-background:new 0 0 795.9 153.8;" xml:space="preserve">
<style type="text/css">
	.st0{fill:#FFFFFF;}
	.st1{fill:url(#SVGID_1_);}
	.st2{fill:url(#SVGID_2_);}
	.st3{fill:url(#SVGID_3_);}
	.st4{fill:url(#SVGID_4_);}
	.st5{fill:url(#SVGID_5_);}
	.st6{fill:url(#SVGID_6_);}
	.st7{fill:url(#SVGID_7_);}
	.st8{fill:url(#SVGID_8_);}
	.st9{fill:url(#SVGID_9_);}
	.st10{fill:url(#SVGID_10_);}
	.st11{fill:url(#SVGID_11_);}
	.st12{fill:url(#SVGID_12_);}
	.st13{fill:url(#SVGID_13_);}
	.st14{fill:url(#SVGID_14_);}
	.st15{fill:url(#SVGID_15_);}
	.st16{fill:url(#SVGID_16_);}
	.st17{fill:url(#SVGID_17_);}
	.st18{fill:url(#SVGID_18_);}
	.st19{fill:url(#SVGID_19_);}
	.st20{fill:url(#SVGID_20_);}
	.st21{fill:url(#SVGID_21_);}
	.st22{fill:url(#SVGID_22_);}
	.st23{fill:url(#SVGID_23_);}
	.st24{fill:url(#SVGID_24_);}
	.st25{fill:url(#SVGID_25_);}
	.st26{fill:url(#SVGID_26_);}
	.st27{fill:url(#SVGID_27_);}
	.st28{fill:url(#SVGID_28_);}
	.st29{fill:url(#SVGID_29_);}
	.st30{fill:url(#SVGID_30_);}
	.st31{fill:url(#SVGID_31_);}
	.st32{fill:url(#SVGID_32_);}
	.st33{fill:url(#SVGID_33_);}
	.st34{fill:url(#SVGID_34_);}
	.st35{fill:url(#SVGID_35_);}
	.st36{fill:url(#SVGID_36_);}
	.st37{fill:url(#SVGID_37_);}
	.st38{fill:url(#SVGID_38_);}
	.st39{fill:url(#SVGID_39_);}
	.st40{fill:url(#SVGID_40_);}
	.st41{fill:url(#SVGID_41_);}
	.st42{fill:url(#SVGID_42_);}
	.st43{fill:url(#SVGID_43_);}
	.st44{fill:url(#SVGID_44_);}
	.st45{fill:url(#SVGID_45_);}
	.st46{fill:url(#SVGID_46_);}
	.st47{fill:url(#SVGID_47_);}
	.st48{fill:url(#SVGID_48_);}
	.st49{fill:url(#SVGID_49_);}
	.st50{fill:url(#SVGID_50_);}
	.st51{fill:url(#SVGID_51_);}
	.st52{fill:url(#SVGID_52_);}
	.st53{fill:url(#SVGID_53_);}
	.st54{fill:url(#SVGID_54_);}
	.st55{fill:url(#SVGID_55_);}
	.st56{fill:url(#SVGID_56_);}
	.st57{fill:url(#SVGID_57_);}
	.st58{fill:url(#SVGID_58_);}
	.st59{fill:url(#SVGID_59_);}
	.st60{fill:url(#SVGID_60_);}
	.st61{fill:url(#SVGID_61_);}
	.st62{fill:url(#SVGID_62_);}
	.st63{fill:url(#SVGID_63_);}
	.st64{fill:url(#SVGID_64_);}
	.st65{fill:url(#SVGID_65_);}
	.st66{fill:url(#SVGID_66_);}
	.st67{fill:url(#SVGID_67_);}
	.st68{fill:url(#SVGID_68_);}
	.st69{fill:url(#SVGID_69_);}
</style>
<g>
	<linearGradient id="SVGID_1_" gradientUnits="userSpaceOnUse" x1="561.5217" y1="76.8933" x2="784.5776" y2="76.8933">
		<stop  offset="0" style="stop-color:#036D96"/>
		<stop  offset="0.1064" style="stop-color:#267289"/>
		<stop  offset="0.273" style="stop-color:#3D7875"/>
		<stop  offset="0.401" style="stop-color:#5FA260"/>
		<stop  offset="0.4703" style="stop-color:#73BB4E"/>
		<stop  offset="0.5892" style="stop-color:#38A4DC"/>
		<stop  offset="0.5986" style="stop-color:#419BD6"/>
		<stop  offset="0.6633" style="stop-color:#5F67AE"/>
		<stop  offset="0.7084" style="stop-color:#694198"/>
		<stop  offset="0.7296" style="stop-color:#6B2F90"/>
		<stop  offset="0.7481" style="stop-color:#732D89"/>
		<stop  offset="0.7815" style="stop-color:#852A7A"/>
		<stop  offset="0.8256" style="stop-color:#A02463"/>
		<stop  offset="0.8433" style="stop-color:#AC2159"/>
		<stop  offset="0.8589" style="stop-color:#B02757"/>
		<stop  offset="0.8829" style="stop-color:#B93553"/>
		<stop  offset="0.9123" style="stop-color:#CA4A48"/>
		<stop  offset="0.9457" style="stop-color:#E46531"/>
		<stop  offset="0.9568" style="stop-color:#F27024"/>
	</linearGradient>
	<path class="st1" d="M575.4,142.5c-16.7,0-18-18.1-18-18.1V11.3h221.9c0,0,16.7-0.8,16.7,14.6c0,16.2-14.5,15.3-14.5,15.3h-59.2
		c-1.5-0.6-3.1-1-4.7-1.2l-48.5-6.1l-53.6-15.4c-1.7-0.5-3.5,0.5-4,2.2c-0.5,1.7,0.5,3.6,2.2,4.1l54.6,15.8c3.8,1.1,6.9,3.6,8.8,7
		c1.9,3.4,2.4,7.4,1.3,11.1c-1.1,3.8-3.6,6.9-7,8.8c-3.4,1.9-7.3,2.3-11.1,1.3c0,0,0,0-0.1,0l-23-6.7c-11.9-3.7-20.8,0-30.2,4
		c-7.2,3.1-14.7,6.2-24.9,6.9c-1.2,0.1-2.6,0.2-4.1,0.2c-1.8,0-3.2,1.4-3.3,3.2c0,1.8,1.5,3.4,3.3,3.4c13.7,0,23.2-4,31.6-7.6
		c9-3.8,16.1-6.8,25.8-3.7c0,0,2,0.6,4.8,1.4c-6.4,3-11.2,9.1-12.2,16.6c-1.1,8.6,3.2,16.7,10.2,20.9c-4.4,3-7.6,7.8-8.3,13.5
		c-1.3,10.5,6.1,20.7,16.7,21.8C646.6,142.5,592.1,142.5,575.4,142.5z"/>
	<linearGradient id="SVGID_2_" gradientUnits="userSpaceOnUse" x1="561.5217" y1="98.6953" x2="784.5776" y2="98.6953">
		<stop  offset="0" style="stop-color:#036D96"/>
		<stop  offset="0.1064" style="stop-color:#267289"/>
		<stop  offset="0.273" style="stop-color:#3D7875"/>
		<stop  offset="0.401" style="stop-color:#5FA260"/>
		<stop  offset="0.4703" style="stop-color:#73BB4E"/>
		<stop  offset="0.5892" style="stop-color:#38A4DC"/>
		<stop  offset="0.5986" style="stop-color:#419BD6"/>
		<stop  offset="0.6633" style="stop-color:#5F67AE"/>
		<stop  offset="0.7084" style="stop-color:#694198"/>
		<stop  offset="0.7296" style="stop-color:#6B2F90"/>
		<stop  offset="0.7481" style="stop-color:#732D89"/>
		<stop  offset="0.7815" style="stop-color:#852A7A"/>
		<stop  offset="0.8256" style="stop-color:#A02463"/>
		<stop  offset="0.8433" style="stop-color:#AC2159"/>
		<stop  offset="0.8589" style="stop-color:#B02757"/>
		<stop  offset="0.8829" style="stop-color:#B93553"/>
		<stop  offset="0.9123" style="stop-color:#CA4A48"/>
		<stop  offset="0.9457" style="stop-color:#E46531"/>
		<stop  offset="0.9568" style="stop-color:#F27024"/>
	</linearGradient>
	<path class="st2" d="M765.3,54c0,0-26.8,42.5-26.8,61.7c0,13.1,8.8,27.7,26.8,27.7c18,0,26.8-14.7,26.8-27.7
		C792.1,96.5,765.3,54,765.3,54z M780,128.7h-29.4v-7.4H780V128.7z M780,103.7h-11v10.7h-7.4v-10.7h-11v-7.4h11V85.5h7.4v10.8h11
		V103.7z"/>
	<linearGradient id="SVGID_3_" gradientUnits="userSpaceOnUse" x1="561.5217" y1="58.9378" x2="784.5776" y2="58.9378">
		<stop  offset="0" style="stop-color:#036D96"/>
		<stop  offset="0.1064" style="stop-color:#267289"/>
		<stop  offset="0.273" style="stop-color:#3D7875"/>
		<stop  offset="0.401" style="stop-color:#5FA260"/>
		<stop  offset="0.4703" style="stop-color:#73BB4E"/>
		<stop  offset="0.5892" style="stop-color:#38A4DC"/>
		<stop  offset="0.5986" style="stop-color:#419BD6"/>
		<stop  offset="0.6633" style="stop-color:#5F67AE"/>
		<stop  offset="0.7084" style="stop-color:#694198"/>
		<stop  offset="0.7296" style="stop-color:#6B2F90"/>
		<stop  offset="0.7481" style="stop-color:#732D89"/>
		<stop  offset="0.7815" style="stop-color:#852A7A"/>
		<stop  offset="0.8256" style="stop-color:#A02463"/>
		<stop  offset="0.8433" style="stop-color:#AC2159"/>
		<stop  offset="0.8589" style="stop-color:#B02757"/>
		<stop  offset="0.8829" style="stop-color:#B93553"/>
		<stop  offset="0.9123" style="stop-color:#CA4A48"/>
		<stop  offset="0.9457" style="stop-color:#E46531"/>
		<stop  offset="0.9568" style="stop-color:#F27024"/>
	</linearGradient>
	<path class="st3" d="M729.4,62.9c-1,8-8.4,13.7-16.4,12.7l-35.5-4.5c3.4-2.7,5.9-6.4,7.2-10.7c1.6-5.4,0.9-11.1-1.8-16.1
		c-0.4-0.8-0.9-1.6-1.5-2.3l35.4,4.4C724.7,47.6,730.4,54.9,729.4,62.9z"/>
	<linearGradient id="SVGID_4_" gradientUnits="userSpaceOnUse" x1="561.5217" y1="92.0328" x2="784.5776" y2="92.0328">
		<stop  offset="0" style="stop-color:#036D96"/>
		<stop  offset="0.1064" style="stop-color:#267289"/>
		<stop  offset="0.273" style="stop-color:#3D7875"/>
		<stop  offset="0.401" style="stop-color:#5FA260"/>
		<stop  offset="0.4703" style="stop-color:#73BB4E"/>
		<stop  offset="0.5892" style="stop-color:#38A4DC"/>
		<stop  offset="0.5986" style="stop-color:#419BD6"/>
		<stop  offset="0.6633" style="stop-color:#5F67AE"/>
		<stop  offset="0.7084" style="stop-color:#694198"/>
		<stop  offset="0.7296" style="stop-color:#6B2F90"/>
		<stop  offset="0.7481" style="stop-color:#732D89"/>
		<stop  offset="0.7815" style="stop-color:#852A7A"/>
		<stop  offset="0.8256" style="stop-color:#A02463"/>
		<stop  offset="0.8433" style="stop-color:#AC2159"/>
		<stop  offset="0.8589" style="stop-color:#B02757"/>
		<stop  offset="0.8829" style="stop-color:#B93553"/>
		<stop  offset="0.9123" style="stop-color:#CA4A48"/>
		<stop  offset="0.9457" style="stop-color:#E46531"/>
		<stop  offset="0.9568" style="stop-color:#F27024"/>
	</linearGradient>
	<path class="st4" d="M712.3,96.9c-0.5,3.9-2.5,7.4-5.6,9.8c-3.1,2.4-6.9,3.5-10.8,3l-48.7-6.1c-8-1-13.7-8.4-12.7-16.4
		c0.5-3.9,2.5-7.4,5.6-9.7c3.1-2.4,7-3.5,10.8-3l48.7,6.1C707.6,81.6,713.3,88.9,712.3,96.9z"/>
	<linearGradient id="SVGID_5_" gradientUnits="userSpaceOnUse" x1="561.5217" y1="124.8886" x2="784.5776" y2="124.8886">
		<stop  offset="0" style="stop-color:#036D96"/>
		<stop  offset="0.1064" style="stop-color:#267289"/>
		<stop  offset="0.273" style="stop-color:#3D7875"/>
		<stop  offset="0.401" style="stop-color:#5FA260"/>
		<stop  offset="0.4703" style="stop-color:#73BB4E"/>
		<stop  offset="0.5892" style="stop-color:#38A4DC"/>
		<stop  offset="0.5986" style="stop-color:#419BD6"/>
		<stop  offset="0.6633" style="stop-color:#5F67AE"/>
		<stop  offset="0.7084" style="stop-color:#694198"/>
		<stop  offset="0.7296" style="stop-color:#6B2F90"/>
		<stop  offset="0.7481" style="stop-color:#732D89"/>
		<stop  offset="0.7815" style="stop-color:#852A7A"/>
		<stop  offset="0.8256" style="stop-color:#A02463"/>
		<stop  offset="0.8433" style="stop-color:#AC2159"/>
		<stop  offset="0.8589" style="stop-color:#B02757"/>
		<stop  offset="0.8829" style="stop-color:#B93553"/>
		<stop  offset="0.9123" style="stop-color:#CA4A48"/>
		<stop  offset="0.9457" style="stop-color:#E46531"/>
		<stop  offset="0.9568" style="stop-color:#F27024"/>
	</linearGradient>
	<path class="st5" d="M689.6,128.2c-0.9,6.9-7.2,11.9-14.2,11l-28-3.5c-6.9-0.9-11.9-7.2-11-14.2c0.9-6.9,7.2-11.9,14.2-11l27.9,3.5
		c6.4,0.8,11.1,6.3,11.1,12.6C689.6,127.2,689.6,127.7,689.6,128.2z"/>
</g>
<g>
	<linearGradient id="SVGID_6_" gradientUnits="userSpaceOnUse" x1="-9.4773" y1="98.7746" x2="528.714" y2="-20.3096">
		<stop  offset="0" style="stop-color:#036D96"/>
		<stop  offset="0.1064" style="stop-color:#267289"/>
		<stop  offset="0.273" style="stop-color:#3D7875"/>
		<stop  offset="0.401" style="stop-color:#5FA260"/>
		<stop  offset="0.4703" style="stop-color:#73BB4E"/>
		<stop  offset="0.5892" style="stop-color:#38A4DC"/>
		<stop  offset="0.5986" style="stop-color:#419BD6"/>
		<stop  offset="0.6633" style="stop-color:#5F67AE"/>
		<stop  offset="0.7084" style="stop-color:#694198"/>
		<stop  offset="0.7296" style="stop-color:#6B2F90"/>
		<stop  offset="0.7481" style="stop-color:#732D89"/>
		<stop  offset="0.7815" style="stop-color:#852A7A"/>
		<stop  offset="0.8256" style="stop-color:#A02463"/>
		<stop  offset="0.8433" style="stop-color:#AC2159"/>
		<stop  offset="0.8589" style="stop-color:#B02757"/>
		<stop  offset="0.8829" style="stop-color:#B93553"/>
		<stop  offset="0.9123" style="stop-color:#CA4A48"/>
		<stop  offset="0.9457" style="stop-color:#E46531"/>
		<stop  offset="0.9568" style="stop-color:#F27024"/>
	</linearGradient>
	<path class="st6" d="M107.3,16.2c-1.5-4.2-4.4-6.1-9.2-6.1l-43.2,0c-5,0-7.9,1.8-9.4,6.1L29.4,58.1c-5,12.9-7.2,22.1-7.2,29.5
		l0,19.4c0,1.2,1,2.2,2.2,2.2l70.3,0l0,31.6c0,1.2,1,2.2,2.2,2.2l31.5,0c1.2,0,2.2-1,2.2-2.2l0-53.2c0-7.4-1.6-16.6-6.5-29.5
		L107.3,16.2z M59.9,78.2l12.2-37l8.4,0l12.2,37L59.9,78.2z"/>
	<linearGradient id="SVGID_7_" gradientUnits="userSpaceOnUse" x1="-1.119" y1="136.5489" x2="537.0722" y2="17.4647">
		<stop  offset="0" style="stop-color:#036D96"/>
		<stop  offset="0.1064" style="stop-color:#267289"/>
		<stop  offset="0.273" style="stop-color:#3D7875"/>
		<stop  offset="0.401" style="stop-color:#5FA260"/>
		<stop  offset="0.4703" style="stop-color:#73BB4E"/>
		<stop  offset="0.5892" style="stop-color:#38A4DC"/>
		<stop  offset="0.5986" style="stop-color:#419BD6"/>
		<stop  offset="0.6633" style="stop-color:#5F67AE"/>
		<stop  offset="0.7084" style="stop-color:#694198"/>
		<stop  offset="0.7296" style="stop-color:#6B2F90"/>
		<stop  offset="0.7481" style="stop-color:#732D89"/>
		<stop  offset="0.7815" style="stop-color:#852A7A"/>
		<stop  offset="0.8256" style="stop-color:#A02463"/>
		<stop  offset="0.8433" style="stop-color:#AC2159"/>
		<stop  offset="0.8589" style="stop-color:#B02757"/>
		<stop  offset="0.8829" style="stop-color:#B93553"/>
		<stop  offset="0.9123" style="stop-color:#CA4A48"/>
		<stop  offset="0.9457" style="stop-color:#E46531"/>
		<stop  offset="0.9568" style="stop-color:#F27024"/>
	</linearGradient>
	<path class="st7" d="M22.1,140.8c0,1.2,1,2.2,2.2,2.2l31.5,0c1.2,0,2.2-1,2.2-2.2l0-26.8c0-1.2-1-2.2-2.2-2.2H24.3
		c-1.2,0-2.2,1-2.2,2.2L22.1,140.8z"/>
	<linearGradient id="SVGID_8_" gradientUnits="userSpaceOnUse" x1="3.5668" y1="157.726" x2="541.758" y2="38.6418">
		<stop  offset="0" style="stop-color:#036D96"/>
		<stop  offset="0.1064" style="stop-color:#267289"/>
		<stop  offset="0.273" style="stop-color:#3D7875"/>
		<stop  offset="0.401" style="stop-color:#5FA260"/>
		<stop  offset="0.4703" style="stop-color:#73BB4E"/>
		<stop  offset="0.5892" style="stop-color:#38A4DC"/>
		<stop  offset="0.5986" style="stop-color:#419BD6"/>
		<stop  offset="0.6633" style="stop-color:#5F67AE"/>
		<stop  offset="0.7084" style="stop-color:#694198"/>
		<stop  offset="0.7296" style="stop-color:#6B2F90"/>
		<stop  offset="0.7481" style="stop-color:#732D89"/>
		<stop  offset="0.7815" style="stop-color:#852A7A"/>
		<stop  offset="0.8256" style="stop-color:#A02463"/>
		<stop  offset="0.8433" style="stop-color:#AC2159"/>
		<stop  offset="0.8589" style="stop-color:#B02757"/>
		<stop  offset="0.8829" style="stop-color:#B93553"/>
		<stop  offset="0.9123" style="stop-color:#CA4A48"/>
		<stop  offset="0.9457" style="stop-color:#E46531"/>
		<stop  offset="0.9568" style="stop-color:#F27024"/>
	</linearGradient>
	<polygon class="st8" points="214.4,111.9 214.4,111.9 214.4,110.2 	"/>
	<linearGradient id="SVGID_9_" gradientUnits="userSpaceOnUse" x1="7.7355" y1="176.5664" x2="545.9268" y2="57.4822">
		<stop  offset="0" style="stop-color:#036D96"/>
		<stop  offset="0.1064" style="stop-color:#267289"/>
		<stop  offset="0.273" style="stop-color:#3D7875"/>
		<stop  offset="0.401" style="stop-color:#5FA260"/>
		<stop  offset="0.4703" style="stop-color:#73BB4E"/>
		<stop  offset="0.5892" style="stop-color:#38A4DC"/>
		<stop  offset="0.5986" style="stop-color:#419BD6"/>
		<stop  offset="0.6633" style="stop-color:#5F67AE"/>
		<stop  offset="0.7084" style="stop-color:#694198"/>
		<stop  offset="0.7296" style="stop-color:#6B2F90"/>
		<stop  offset="0.7481" style="stop-color:#732D89"/>
		<stop  offset="0.7815" style="stop-color:#852A7A"/>
		<stop  offset="0.8256" style="stop-color:#A02463"/>
		<stop  offset="0.8433" style="stop-color:#AC2159"/>
		<stop  offset="0.8589" style="stop-color:#B02757"/>
		<stop  offset="0.8829" style="stop-color:#B93553"/>
		<stop  offset="0.9123" style="stop-color:#CA4A48"/>
		<stop  offset="0.9457" style="stop-color:#E46531"/>
		<stop  offset="0.9568" style="stop-color:#F27024"/>
	</linearGradient>
	<path class="st9" d="M240,143.1c1.2,0,2.2-1,2.2-2.2l0-26.8c0-1.2-1-2.2-2.2-2.2l-20.8,0c-1.2,0-2.2,1-2.2,2.2v26.8
		c0,1.2,1,2.2,2.2,2.2L240,143.1z"/>
	<linearGradient id="SVGID_10_" gradientUnits="userSpaceOnUse" x1="-5.2025" y1="118.094" x2="532.9888" y2="-0.9902">
		<stop  offset="0" style="stop-color:#036D96"/>
		<stop  offset="0.1064" style="stop-color:#267289"/>
		<stop  offset="0.273" style="stop-color:#3D7875"/>
		<stop  offset="0.401" style="stop-color:#5FA260"/>
		<stop  offset="0.4703" style="stop-color:#73BB4E"/>
		<stop  offset="0.5892" style="stop-color:#38A4DC"/>
		<stop  offset="0.5986" style="stop-color:#419BD6"/>
		<stop  offset="0.6633" style="stop-color:#5F67AE"/>
		<stop  offset="0.7084" style="stop-color:#694198"/>
		<stop  offset="0.7296" style="stop-color:#6B2F90"/>
		<stop  offset="0.7481" style="stop-color:#732D89"/>
		<stop  offset="0.7815" style="stop-color:#852A7A"/>
		<stop  offset="0.8256" style="stop-color:#A02463"/>
		<stop  offset="0.8433" style="stop-color:#AC2159"/>
		<stop  offset="0.8589" style="stop-color:#B02757"/>
		<stop  offset="0.8829" style="stop-color:#B93553"/>
		<stop  offset="0.9123" style="stop-color:#CA4A48"/>
		<stop  offset="0.9457" style="stop-color:#E46531"/>
		<stop  offset="0.9568" style="stop-color:#F27024"/>
	</linearGradient>
	<path class="st10" d="M214.4,110.2L214.4,110.2L214.4,110.2l0-68.9l25.6,0c1.2,0,2.2-1,2.2-2.2l0-26.8c0-1.2-1-2.2-2.2-2.2l-87.6,0
		c-1.2,0-2.2,1-2.2,2.2l0,26.8c0,1.2,1,2.2,2.2,2.2l26,0l0,70.6l-26,0c-1.2,0-2.2,1-2.2,2.2l0,26.8c0,1.2,1,2.2,2.2,2.2l59.8,0
		c1.2,0,2.2-1,2.2-2.2v-29h0L214.4,110.2z"/>
	<linearGradient id="SVGID_11_" gradientUnits="userSpaceOnUse" x1="6.9199" y1="172.8801" x2="545.1111" y2="53.7959">
		<stop  offset="0" style="stop-color:#036D96"/>
		<stop  offset="0.1064" style="stop-color:#267289"/>
		<stop  offset="0.273" style="stop-color:#3D7875"/>
		<stop  offset="0.401" style="stop-color:#5FA260"/>
		<stop  offset="0.4703" style="stop-color:#73BB4E"/>
		<stop  offset="0.5892" style="stop-color:#38A4DC"/>
		<stop  offset="0.5986" style="stop-color:#419BD6"/>
		<stop  offset="0.6633" style="stop-color:#5F67AE"/>
		<stop  offset="0.7084" style="stop-color:#694198"/>
		<stop  offset="0.7296" style="stop-color:#6B2F90"/>
		<stop  offset="0.7481" style="stop-color:#732D89"/>
		<stop  offset="0.7815" style="stop-color:#852A7A"/>
		<stop  offset="0.8256" style="stop-color:#A02463"/>
		<stop  offset="0.8433" style="stop-color:#AC2159"/>
		<stop  offset="0.8589" style="stop-color:#B02757"/>
		<stop  offset="0.8829" style="stop-color:#B93553"/>
		<stop  offset="0.9123" style="stop-color:#CA4A48"/>
		<stop  offset="0.9457" style="stop-color:#E46531"/>
		<stop  offset="0.9568" style="stop-color:#F27024"/>
	</linearGradient>
	<path class="st11" d="M475.2,46l0,40.6l-13.1-28.3c-0.4-0.9-1.3-1.4-2.2-1.4h-18.4c-1,0-1.9,0.6-2.3,1.4l-12.7,28.3l0-74.3
		c0-1.2-1-2.2-2.2-2.2l-31.6,0c-1.2,0-2.2,1-2.2,2.2l0,75.7c0,7.9,0,13.8,3.3,22.9l9.2,25.5c1.3,3.9,4.1,6.6,8.1,6.6l18.6,0
		c3.9,0,6.6-1.8,7.8-5.5l12.6-33.2l12.9,33.2c1.1,3.9,4.4,5.5,8.5,5.5l19.4,0c3.9,0,6.1-3,7.4-6.6l9.2-25.1c3.3-9,3.3-15,3.3-22.9
		l0-42.4c0-1.2-1-2.2-2.2-2.2h-31.3C476.2,43.9,475.2,44.8,475.2,46z"/>
	<linearGradient id="SVGID_12_" gradientUnits="userSpaceOnUse" x1="2.7356" y1="153.9695" x2="540.9268" y2="34.8853">
		<stop  offset="0" style="stop-color:#036D96"/>
		<stop  offset="0.1064" style="stop-color:#267289"/>
		<stop  offset="0.273" style="stop-color:#3D7875"/>
		<stop  offset="0.401" style="stop-color:#5FA260"/>
		<stop  offset="0.4703" style="stop-color:#73BB4E"/>
		<stop  offset="0.5892" style="stop-color:#38A4DC"/>
		<stop  offset="0.5986" style="stop-color:#419BD6"/>
		<stop  offset="0.6633" style="stop-color:#5F67AE"/>
		<stop  offset="0.7084" style="stop-color:#694198"/>
		<stop  offset="0.7296" style="stop-color:#6B2F90"/>
		<stop  offset="0.7481" style="stop-color:#732D89"/>
		<stop  offset="0.7815" style="stop-color:#852A7A"/>
		<stop  offset="0.8256" style="stop-color:#A02463"/>
		<stop  offset="0.8433" style="stop-color:#AC2159"/>
		<stop  offset="0.8589" style="stop-color:#B02757"/>
		<stop  offset="0.8829" style="stop-color:#B93553"/>
		<stop  offset="0.9123" style="stop-color:#CA4A48"/>
		<stop  offset="0.9457" style="stop-color:#E46531"/>
		<stop  offset="0.9568" style="stop-color:#F27024"/>
	</linearGradient>
	<path class="st12" d="M334.4,91.6l0,49.3c0,1.2,1,2.2,2.2,2.2l31.4,0c1.2,0,2.2-1,2.2-2.2l0-82.5c0,0,0,0,0,0l0-46
		c0-1.2-1-2.2-2.2-2.2l-31.4,0c-1.2,0-2.2,1-2.2,2.2l0,33.8c0,0,0,0,0,0l0,13.9L334.4,91.6l0-31.5"/>
	<linearGradient id="SVGID_13_" gradientUnits="userSpaceOnUse" x1="-0.6171" y1="138.8172" x2="537.5741" y2="19.733">
		<stop  offset="0" style="stop-color:#036D96"/>
		<stop  offset="0.1064" style="stop-color:#267289"/>
		<stop  offset="0.273" style="stop-color:#3D7875"/>
		<stop  offset="0.401" style="stop-color:#5FA260"/>
		<stop  offset="0.4703" style="stop-color:#73BB4E"/>
		<stop  offset="0.5892" style="stop-color:#38A4DC"/>
		<stop  offset="0.5986" style="stop-color:#419BD6"/>
		<stop  offset="0.6633" style="stop-color:#5F67AE"/>
		<stop  offset="0.7084" style="stop-color:#694198"/>
		<stop  offset="0.7296" style="stop-color:#6B2F90"/>
		<stop  offset="0.7481" style="stop-color:#732D89"/>
		<stop  offset="0.7815" style="stop-color:#852A7A"/>
		<stop  offset="0.8256" style="stop-color:#A02463"/>
		<stop  offset="0.8433" style="stop-color:#AC2159"/>
		<stop  offset="0.8589" style="stop-color:#B02757"/>
		<stop  offset="0.8829" style="stop-color:#B93553"/>
		<stop  offset="0.9123" style="stop-color:#CA4A48"/>
		<stop  offset="0.9457" style="stop-color:#E46531"/>
		<stop  offset="0.9568" style="stop-color:#F27024"/>
	</linearGradient>
	<path class="st13" d="M298.4,60.1v31.5V60.1l0-47.7c0-1.2-1-2.2-2.2-2.2l-31.5,0c-1.2,0-2.2,1-2.2,2.2l0,128.5c0,1.2,1,2.2,2.2,2.2
		l31.5,0c1.2,0,2.2-1,2.2-2.2l0-49.3"/>
	<linearGradient id="SVGID_14_" gradientUnits="userSpaceOnUse" x1="-3.0074" y1="146.5149" x2="541.8399" y2="25.9579">
		<stop  offset="0" style="stop-color:#036D96"/>
		<stop  offset="0.1064" style="stop-color:#267289"/>
		<stop  offset="0.273" style="stop-color:#3D7875"/>
		<stop  offset="0.401" style="stop-color:#5FA260"/>
		<stop  offset="0.4703" style="stop-color:#73BB4E"/>
		<stop  offset="0.5892" style="stop-color:#38A4DC"/>
		<stop  offset="0.5986" style="stop-color:#419BD6"/>
		<stop  offset="0.6633" style="stop-color:#5F67AE"/>
		<stop  offset="0.7084" style="stop-color:#694198"/>
		<stop  offset="0.7296" style="stop-color:#6B2F90"/>
		<stop  offset="0.7481" style="stop-color:#732D89"/>
		<stop  offset="0.7815" style="stop-color:#852A7A"/>
		<stop  offset="0.8256" style="stop-color:#A02463"/>
		<stop  offset="0.8433" style="stop-color:#AC2159"/>
		<stop  offset="0.8589" style="stop-color:#B02757"/>
		<stop  offset="0.8829" style="stop-color:#B93553"/>
		<stop  offset="0.9123" style="stop-color:#CA4A48"/>
		<stop  offset="0.9457" style="stop-color:#E46531"/>
		<stop  offset="0.9568" style="stop-color:#F27024"/>
	</linearGradient>
	<path class="st14" d="M330.8,91.6H302c-0.6,0-1-0.5-1-1V61.1c0-0.6,0.5-1,1-1h28.8c0.6,0,1,0.5,1,1v29.5
		C331.8,91.1,331.4,91.6,330.8,91.6z"/>
	<linearGradient id="SVGID_15_" gradientUnits="userSpaceOnUse" x1="-1.434" y1="135.1255" x2="536.7573" y2="16.0413">
		<stop  offset="0" style="stop-color:#036D96"/>
		<stop  offset="0.1064" style="stop-color:#267289"/>
		<stop  offset="0.273" style="stop-color:#3D7875"/>
		<stop  offset="0.401" style="stop-color:#5FA260"/>
		<stop  offset="0.4703" style="stop-color:#73BB4E"/>
		<stop  offset="0.5892" style="stop-color:#38A4DC"/>
		<stop  offset="0.5986" style="stop-color:#419BD6"/>
		<stop  offset="0.6633" style="stop-color:#5F67AE"/>
		<stop  offset="0.7084" style="stop-color:#694198"/>
		<stop  offset="0.7296" style="stop-color:#6B2F90"/>
		<stop  offset="0.7481" style="stop-color:#732D89"/>
		<stop  offset="0.7815" style="stop-color:#852A7A"/>
		<stop  offset="0.8256" style="stop-color:#A02463"/>
		<stop  offset="0.8433" style="stop-color:#AC2159"/>
		<stop  offset="0.8589" style="stop-color:#B02757"/>
		<stop  offset="0.8829" style="stop-color:#B93553"/>
		<stop  offset="0.9123" style="stop-color:#CA4A48"/>
		<stop  offset="0.9457" style="stop-color:#E46531"/>
		<stop  offset="0.9568" style="stop-color:#F27024"/>
	</linearGradient>
	<path class="st15" d="M508.7,10.1l-30.7,0c0,0,0,0,0,0h-0.6c-1.2,0-2.2,1-2.2,2.2V13l0,0l0,26.1c0,1.2,1,2.2,2.2,2.2h31.3
		c1.2,0,2.2-1,2.2-2.2l0-26.8C510.9,11.1,509.9,10.1,508.7,10.1z"/>
</g>
</svg>
